HIERARCHY
ROOT mixamorig:Hips
{
	OFFSET 0.000000 201.639420 0.000000
	CHANNELS 6 Xposition Yposition Zposition Xrotation Yrotation Zrotation
	JOINT mixamorig:Spine
	{
		OFFSET 0.006200 19.524994 -2.481800
		CHANNELS 3 Xrotation Yrotation Zrotation
		JOINT mixamorig:Spine1
		{
			OFFSET -0.000900 22.835007 -2.825400
			CHANNELS 3 Xrotation Yrotation Zrotation
			JOINT mixamorig:Spine2
			{
				OFFSET -0.020600 26.552490 -3.193300
				CHANNELS 3 Xrotation Yrotation Zrotation
				JOINT mixamorig:Neck
				{
					OFFSET -0.060000 30.701813 1.352200
					CHANNELS 3 Xrotation Yrotation Zrotation
					JOINT mixamorig:Head
					{
						OFFSET -0.087200 22.547607 3.670900
						CHANNELS 3 Xrotation Yrotation Zrotation
						JOINT mixamorig:HeadTop_End
						{
							OFFSET -0.830600 40.355194 7.893500
							CHANNELS 3 Xrotation Yrotation Zrotation
							End Site
							{
								OFFSET 0.000000 30.592346 0.000000
							}
						}
						JOINT mixamorig:RightEye
						{
							OFFSET -6.302100 18.118591 16.197100
							CHANNELS 3 Xrotation Yrotation Zrotation
							End Site
							{
								OFFSET 0.000000 30.592346 0.000000
							}
						}
						JOINT mixamorig:LeftEye
						{
							OFFSET 6.741500 18.382690 16.401899
							CHANNELS 3 Xrotation Yrotation Zrotation
							End Site
							{
								OFFSET 0.000000 30.592346 0.000000
							}
						}
					}
				}
				JOINT mixamorig:LeftShoulder
				{
					OFFSET 11.924900 18.230499 1.425400
					CHANNELS 3 Xrotation Yrotation Zrotation
					JOINT mixamorig:LeftArm
					{
						OFFSET 25.435989 -0.697632 -5.229300
						CHANNELS 3 Xrotation Yrotation Zrotation
						JOINT mixamorig:LeftForeArm
						{
							OFFSET 54.684776 0.000000 0.000000
							CHANNELS 3 Xrotation Yrotation Zrotation
							JOINT mixamorig:LeftHand
							{
								OFFSET 55.098175 0.000000 0.000000
								CHANNELS 3 Xrotation Yrotation Zrotation
								JOINT mixamorig:LeftHandMiddle1
								{
									OFFSET 23.369751 0.000000 0.000000
									CHANNELS 3 Xrotation Yrotation Zrotation
									JOINT mixamorig:LeftHandMiddle2
									{
										OFFSET 6.378677 0.000000 0.000000
										CHANNELS 3 Xrotation Yrotation Zrotation
										JOINT mixamorig:LeftHandMiddle3
										{
											OFFSET 6.148331 0.000000 0.000000
											CHANNELS 3 Xrotation Yrotation Zrotation
											JOINT mixamorig:LeftHandMiddle4
											{
												OFFSET 6.582504 0.000000 0.000000
												CHANNELS 3 Xrotation Yrotation Zrotation
												End Site
												{
													OFFSET -1.168900 6.395691 1.028606
												}
											}
										}
									}
								}
								JOINT mixamorig:LeftHandThumb1
								{
									OFFSET 7.235672 -3.848206 5.434273
									CHANNELS 3 Xrotation Yrotation Zrotation
									JOINT mixamorig:LeftHandThumb2
									{
										OFFSET 6.568451 -3.792297 3.792300
										CHANNELS 3 Xrotation Yrotation Zrotation
										JOINT mixamorig:LeftHandThumb3
										{
											OFFSET 6.063080 -3.500519 3.500518
											CHANNELS 3 Xrotation Yrotation Zrotation
											JOINT mixamorig:LeftHandThumb4
											{
												OFFSET 4.793182 -2.767334 2.767349
												CHANNELS 3 Xrotation Yrotation Zrotation
												End Site
												{
													OFFSET 0.101639 6.054260 1.275483
												}
											}
										}
									}
								}
								JOINT mixamorig:LeftHandIndex1
								{
									OFFSET 23.101074 -0.309540 4.992809
									CHANNELS 3 Xrotation Yrotation Zrotation
									JOINT mixamorig:LeftHandIndex2
									{
										OFFSET 6.226883 0.000000 0.000000
										CHANNELS 3 Xrotation Yrotation Zrotation
										JOINT mixamorig:LeftHandIndex3
										{
											OFFSET 6.094330 0.000000 0.000000
											CHANNELS 3 Xrotation Yrotation Zrotation
											JOINT mixamorig:LeftHandIndex4
											{
												OFFSET 5.482605 0.000000 0.000000
												CHANNELS 3 Xrotation Yrotation Zrotation
												End Site
												{
													OFFSET -1.427902 5.233032 0.797164
												}
											}
										}
									}
								}
								JOINT mixamorig:LeftHandRing1
								{
									OFFSET 22.299240 0.021149 -3.964172
									CHANNELS 3 Xrotation Yrotation Zrotation
									JOINT mixamorig:LeftHandRing2
									{
										OFFSET 6.321869 0.000000 0.000000
										CHANNELS 3 Xrotation Yrotation Zrotation
										JOINT mixamorig:LeftHandRing3
										{
											OFFSET 5.899796 0.000000 0.000000
											CHANNELS 3 Xrotation Yrotation Zrotation
											JOINT mixamorig:LeftHandRing4
											{
												OFFSET 6.517899 0.000000 0.000000
												CHANNELS 3 Xrotation Yrotation Zrotation
												End Site
												{
													OFFSET -1.637299 6.232208 0.980890
												}
											}
										}
									}
								}
								JOINT mixamorig:LeftHandPinky1
								{
									OFFSET 20.463791 -0.302338 -8.562233
									CHANNELS 3 Xrotation Yrotation Zrotation
									JOINT mixamorig:LeftHandPinky2
									{
										OFFSET 6.908646 0.000000 0.000000
										CHANNELS 3 Xrotation Yrotation Zrotation
										JOINT mixamorig:LeftHandPinky3
										{
											OFFSET 4.622849 0.000000 0.000000
											CHANNELS 3 Xrotation Yrotation Zrotation
											JOINT mixamorig:LeftHandPinky4
											{
												OFFSET 5.216080 0.000000 0.000000
												CHANNELS 3 Xrotation Yrotation Zrotation
												End Site
												{
													OFFSET -0.606308 5.116241 0.814926
												}
											}
										}
									}
								}
							}
						}
					}
				}
				JOINT mixamorig:RightShoulder
				{
					OFFSET -12.001300 18.284088 1.348900
					CHANNELS 3 Xrotation Yrotation Zrotation
					JOINT mixamorig:RightArm
					{
						OFFSET -25.308500 -0.751312 -5.164599
						CHANNELS 3 Xrotation Yrotation Zrotation
						JOINT mixamorig:RightForeArm
						{
							OFFSET -54.684429 0.000000 0.000000
							CHANNELS 3 Xrotation Yrotation Zrotation
							JOINT mixamorig:RightHand
							{
								OFFSET -55.150291 0.000000 0.000000
								CHANNELS 3 Xrotation Yrotation Zrotation
								JOINT mixamorig:RightHandMiddle1
								{
									OFFSET -23.317566 0.000000 0.000000
									CHANNELS 3 Xrotation Yrotation Zrotation
									JOINT mixamorig:RightHandMiddle2
									{
										OFFSET -6.378403 0.000000 0.000000
										CHANNELS 3 Xrotation Yrotation Zrotation
										JOINT mixamorig:RightHandMiddle3
										{
											OFFSET -6.148193 0.000000 0.000000
											CHANNELS 3 Xrotation Yrotation Zrotation
											JOINT mixamorig:RightHandMiddle4
											{
												OFFSET -6.583389 0.000000 0.000000
												CHANNELS 3 Xrotation Yrotation Zrotation
												End Site
												{
													OFFSET 1.171692 6.395905 1.029786
												}
											}
										}
									}
								}
								JOINT mixamorig:RightHandThumb1
								{
									OFFSET -7.190521 -3.860474 5.435846
									CHANNELS 3 Xrotation Yrotation Zrotation
									JOINT mixamorig:RightHandThumb2
									{
										OFFSET -6.567429 -3.791718 3.791708
										CHANNELS 3 Xrotation Yrotation Zrotation
										JOINT mixamorig:RightHandThumb3
										{
											OFFSET -6.062469 -3.500153 3.500166
											CHANNELS 3 Xrotation Yrotation Zrotation
											JOINT mixamorig:RightHandThumb4
											{
												OFFSET -4.792618 -2.767029 2.767022
												CHANNELS 3 Xrotation Yrotation Zrotation
												End Site
												{
													OFFSET -0.100327 6.053253 1.276754
												}
											}
										}
									}
								}
								JOINT mixamorig:RightHandIndex1
								{
									OFFSET -23.048981 -0.310791 4.992554
									CHANNELS 3 Xrotation Yrotation Zrotation
									JOINT mixamorig:RightHandIndex2
									{
										OFFSET -6.227539 0.000000 0.000000
										CHANNELS 3 Xrotation Yrotation Zrotation
										JOINT mixamorig:RightHandIndex3
										{
											OFFSET -6.095047 0.000000 0.000000
											CHANNELS 3 Xrotation Yrotation Zrotation
											JOINT mixamorig:RightHandIndex4
											{
												OFFSET -5.484772 0.000000 0.000000
												CHANNELS 3 Xrotation Yrotation Zrotation
												End Site
												{
													OFFSET 1.420593 5.237305 0.797056
												}
											}
										}
									}
								}
								JOINT mixamorig:RightHandRing1
								{
									OFFSET -22.246323 0.020569 -3.963762
									CHANNELS 3 Xrotation Yrotation Zrotation
									JOINT mixamorig:RightHandRing2
									{
										OFFSET -6.322128 0.000000 0.000000
										CHANNELS 3 Xrotation Yrotation Zrotation
										JOINT mixamorig:RightHandRing3
										{
											OFFSET -5.900024 0.000000 0.000000
											CHANNELS 3 Xrotation Yrotation Zrotation
											JOINT mixamorig:RightHandRing4
											{
												OFFSET -6.518356 0.000000 0.000000
												CHANNELS 3 Xrotation Yrotation Zrotation
												End Site
												{
													OFFSET 1.636398 6.232697 0.982186
												}
											}
										}
									}
								}
								JOINT mixamorig:RightHandPinky1
								{
									OFFSET -20.411011 -0.303314 -8.561701
									CHANNELS 3 Xrotation Yrotation Zrotation
									JOINT mixamorig:RightHandPinky2
									{
										OFFSET -6.907349 0.000000 0.000000
										CHANNELS 3 Xrotation Yrotation Zrotation
										JOINT mixamorig:RightHandPinky3
										{
											OFFSET -4.623840 0.000000 0.000000
											CHANNELS 3 Xrotation Yrotation Zrotation
											JOINT mixamorig:RightHandPinky4
											{
												OFFSET -5.218353 0.000000 0.000000
												CHANNELS 3 Xrotation Yrotation Zrotation
												End Site
												{
													OFFSET 0.602097 5.118835 0.816273
												}
											}
										}
									}
								}
							}
						}
					}
				}
			}
		}
	}
	JOINT mixamorig:LeftUpLeg
	{
		OFFSET 18.168400 -13.561905 -0.039000
		CHANNELS 3 Xrotation Yrotation Zrotation
		JOINT mixamorig:LeftLeg
		{
			OFFSET 0.577358 -80.825211 -3.695000
			CHANNELS 3 Xrotation Yrotation Zrotation
			JOINT mixamorig:LeftFoot
			{
				OFFSET -0.577356 -83.370262 -6.520700
				CHANNELS 3 Xrotation Yrotation Zrotation
				JOINT mixamorig:LeftToeBase
				{
					OFFSET 0.750401 -20.798306 25.135401
					CHANNELS 3 Xrotation Yrotation Zrotation
					JOINT mixamorig:LeftToe_End
					{
						OFFSET -0.000500 0.001200 19.917799
						CHANNELS 3 Xrotation Yrotation Zrotation
						End Site
						{
							OFFSET 0.000000 19.917805 0.000000
						}
					}
				}
			}
		}
	}
	JOINT mixamorig:RightUpLeg
	{
		OFFSET -18.162500 -13.585098 -0.041000
		CHANNELS 3 Xrotation Yrotation Zrotation
		JOINT mixamorig:RightLeg
		{
			OFFSET -0.595024 -80.945297 -3.631900
			CHANNELS 3 Xrotation Yrotation Zrotation
			JOINT mixamorig:RightFoot
			{
				OFFSET 0.595024 -83.218193 -6.561200
				CHANNELS 3 Xrotation Yrotation Zrotation
				JOINT mixamorig:RightToeBase
				{
					OFFSET -0.753601 -20.807106 25.115000
					CHANNELS 3 Xrotation Yrotation Zrotation
					JOINT mixamorig:RightToe_End
					{
						OFFSET 0.000299 0.001700 19.918200
						CHANNELS 3 Xrotation Yrotation Zrotation
						End Site
						{
							OFFSET 0.000000 19.918203 0.000000
						}
					}
				}
			}
		}
	}
}
MOTION
Frames: 5
Frame Time: 0.033333
-9.891258 176.799210 482.937958 189.373251 -159.637381 165.674940 4.709190 -4.736801 -9.784663 1.539995 -3.162146 -6.986676 1.486878 -2.618386 -6.436074 0.744747 2.529977 10.740005 -39.805840 13.715699 14.364491 0.000001 -0.000000 0.000001 0.000001 -0.000000 0.000001 0.000001 -0.000000 0.000001 -7.325275 -2.579656 0.989444 -8.462410 1.797558 -54.196106 -0.000010 -26.909774 0.000004 25.611852 -20.659886 8.378964 1.017421 8.743813 -8.875344 0.024150 0.532200 -5.200496 0.359608 2.022710 -20.159831 -0.000001 0.000006 0.000002 -0.501380 6.602661 8.163254 4.255353 7.553257 7.150072 -12.961833 2.874055 4.584785 0.000002 -0.000000 0.000001 5.081297 2.704162 -10.611070 0.045497 0.729445 -7.136947 0.007296 0.292833 -2.858769 -0.000001 0.000002 0.000001 1.548917 11.112703 -9.844654 0.203300 1.531470 -15.123200 0.129217 1.224847 -12.042705 0.000001 -0.000003 0.000000 0.815582 16.761750 -4.599194 0.344926 1.982269 -19.739518 0.060364 0.839759 -8.223361 0.000000 -0.000003 0.000000 -2.480853 9.154543 -17.047747 -58.304790 -22.367227 4.081576 0.000001 9.741480 0.000012 -80.336951 -10.554171 -15.274091 0.223319 -3.583254 12.456308 0.482434 -2.066029 26.285104 0.377277 -1.837925 23.198034 0.000001 -0.000000 0.000003 -7.298321 11.891374 11.792705 7.101661 -18.652977 -0.820900 -4.941805 -9.842988 -15.639074 -0.000002 0.000000 0.000001 0.013210 5.764580 17.816436 0.296886 -1.637772 20.547644 0.137782 -1.125556 13.956513 0.000002 -0.000003 -0.000002 2.805995 -11.054745 18.755594 0.691234 -2.443360 31.588020 0.337421 -1.742024 21.921991 -0.000004 -0.000000 0.000000 -2.550097 -23.059772 21.262565 0.361642 -1.801041 22.705866 0.404636 -1.900433 24.036546 0.000001 -0.000000 0.000001 -51.356127 -19.381954 24.946487 36.166398 -8.777009 8.322877 -0.614052 -20.035347 -19.072765 -6.020789 -0.000001 0.000004 -0.000000 -0.000001 -0.000000 1.695699 -7.225083 0.194111 38.632643 1.747759 -6.292716 26.261801 2.857484 13.949718 -2.228407 -0.387022 5.538734 0.000001 -0.000000 0.000001 
-10.917255 179.343369 490.916138 197.281381 -171.691640 165.961794 5.699524 -2.944832 -9.677453 2.060139 -1.628647 -6.659260 1.998154 -1.078096 -6.025418 1.734747 0.808035 6.225212 -41.090712 2.522839 9.307864 0.000000 -0.000000 -0.000000 0.000000 -0.000000 -0.000000 0.000000 -0.000000 -0.000000 -7.906104 -2.503974 -2.833273 -12.848062 -8.807448 -56.709794 -0.000000 -25.984516 0.000002 24.696164 -12.228311 8.510091 0.810703 8.503177 -7.103001 0.005328 0.250355 -2.443819 0.285814 1.809183 -17.952785 0.000002 0.000002 -0.000003 -0.725701 6.924773 7.923954 4.065878 7.425753 7.150831 -12.696857 3.572954 4.439774 0.000003 0.000001 0.000001 5.071839 2.716838 -10.609431 0.053927 0.793957 -7.771965 0.011346 0.364787 -3.561997 -0.000001 -0.000003 0.000001 1.015611 10.679639 -6.426262 0.134975 1.251596 -12.309926 0.121259 1.187030 -11.665428 -0.000001 0.000001 0.000000 -0.022191 15.842636 0.563951 0.508702 2.389682 -24.031080 0.024385 0.534480 -5.223004 0.000000 -0.000000 -0.000001 -2.108665 12.787846 -19.671358 -50.809624 -11.587845 1.028575 0.000002 7.227476 -0.000014 -86.086973 -3.337807 -27.296957 0.222613 -3.579178 12.493873 0.481641 -2.064392 26.262532 0.379599 -1.843324 23.270325 -0.000005 -0.000001 0.000002 -7.156500 11.852380 11.643225 7.096895 -18.659491 -0.860339 -4.929484 -9.943832 -15.660085 -0.000001 -0.000001 -0.000000 0.033384 5.716830 17.720294 0.295802 -1.634901 20.510244 0.140756 -1.137460 14.106933 0.000001 0.000002 -0.000003 2.800681 -11.054428 18.718625 0.705111 -2.465791 31.912310 0.339326 -1.746811 21.985684 0.000001 0.000001 -0.000001 -2.427155 -23.067033 21.308587 0.366179 -1.811839 22.849577 0.415909 -1.925559 24.375096 -0.000002 0.000001 0.000000 -59.001585 -19.088589 17.836180 30.128074 -6.779826 8.052974 4.278846 -24.216104 -19.141009 -6.410518 -0.000008 -0.000002 -0.000000 0.000002 0.000000 2.152280 -9.864950 2.488512 31.642699 -3.867652 -3.969716 27.226551 3.318328 14.935764 1.327807 0.000002 -0.000001 -0.000001 -0.000001 -0.000001 
-11.549358 181.584671 499.012024 203.113543 -178.852724 165.108553 6.936270 -0.201203 -8.771863 2.539657 0.572408 -5.870126 2.416147 1.058944 -5.145519 -2.319784 -0.614632 3.000891 -37.429222 -4.845656 6.865569 -0.000000 0.000000 -0.000001 -0.000000 0.000000 -0.000001 -0.000000 0.000000 -0.000001 -8.382318 -1.822042 -5.948684 -13.784692 -15.049179 -59.778328 -0.000003 -28.573680 -0.000024 24.691940 -4.637512 8.672574 0.701058 8.336166 -6.164387 0.001561 0.135363 -1.321172 0.252874 1.704274 -16.878740 0.000004 0.000000 0.000000 -0.898590 7.220715 7.667400 3.897815 7.312907 7.136464 -12.444676 4.218688 4.334083 -0.000001 -0.000001 0.000000 5.049714 2.698605 -10.792758 0.062967 0.857567 -8.399001 0.016253 0.436555 -4.264034 -0.000001 -0.000001 -0.000002 0.760172 10.376551 -4.753832 0.105557 1.108271 -10.881522 0.123973 1.200007 -11.794906 0.000002 0.000001 0.000001 -0.530490 15.183261 3.320528 0.609098 2.603019 -26.336192 0.013773 0.401861 -3.924568 0.000000 0.000000 0.000002 -1.100612 18.531744 -22.784579 -34.632894 -3.761397 -5.471748 -0.000002 5.281290 -0.000001 -87.725290 6.291228 -62.636018 0.221909 -3.575085 12.531442 0.480809 -2.062747 26.239951 0.381909 -1.848726 23.342588 0.000005 0.000001 0.000003 -7.014581 11.813003 11.494077 7.092097 -18.666002 -0.899757 -4.917192 -10.044695 -15.681121 0.000002 0.000000 -0.000001 0.053340 5.669051 17.624176 0.294740 -1.632056 20.472800 0.143744 -1.149335 14.257356 -0.000000 0.000004 0.000001 2.795339 -11.054116 18.681665 0.719128 -2.488135 32.236615 0.341300 -1.751623 22.049326 -0.000000 -0.000004 -0.000004 -2.304199 -23.074204 21.354728 0.370704 -1.822595 22.993318 0.427375 -1.950629 24.713655 -0.000003 -0.000003 0.000001 -64.840707 -16.812972 14.138441 29.683626 -8.492716 7.136339 4.015410 -17.348375 -17.106972 -7.425164 -0.000003 -0.000001 -0.000000 -0.000000 0.000000 2.024384 -10.069642 4.201505 25.488577 -10.226573 -4.905791 28.825953 -1.154652 16.601186 1.326159 0.000002 -0.000004 -0.000001 0.000002 -0.000000 
-11.920925 183.229172 507.448029 206.761451 -182.824302 164.161329 8.158857 2.653348 -7.623157 3.030265 2.735461 -5.027750 2.854281 3.142747 -4.260042 -6.963599 -1.925442 -0.186485 -34.866210 -13.437708 5.361917 0.000001 -0.000000 -0.000000 0.000001 -0.000000 -0.000000 0.000001 -0.000000 -0.000000 -8.602478 -1.336459 -6.696565 -9.315914 -18.887536 -61.384823 -0.000002 -33.419634 -0.000007 24.188965 2.038570 11.596522 0.620013 8.187832 -5.468852 0.000363 0.065601 -0.640212 0.230503 1.628701 -16.109093 -0.000000 -0.000000 -0.000001 -1.021874 7.491552 7.393419 3.750454 7.214383 7.106961 -12.204395 4.813280 4.266615 0.000001 0.000000 -0.000002 5.021631 2.668638 -11.021994 0.072578 0.920287 -9.018313 0.022025 0.508139 -4.964888 0.000002 -0.000001 -0.000001 0.583396 10.110130 -3.565512 0.086238 1.002566 -9.832548 0.129698 1.227156 -12.065728 0.000001 -0.000000 -0.000000 -0.965118 14.585656 5.409447 0.691939 2.763876 -28.105399 0.008628 0.318235 -3.106987 -0.000001 -0.000000 0.000001 0.231640 24.224509 -25.938323 -15.666982 4.287701 -6.789997 -0.000002 3.814016 -0.000004 -74.490214 3.026620 -50.776746 0.221163 -3.571016 12.568998 0.480031 -2.061085 26.217398 0.384252 -1.854121 23.414846 -0.000002 0.000000 0.000002 -6.872496 11.773200 11.345275 7.087270 -18.672482 -0.939201 -4.904913 -10.145547 -15.702110 0.000001 -0.000001 0.000000 0.073133 5.621230 17.528052 0.293677 -1.629206 20.435398 0.146787 -1.161200 14.407789 0.000001 0.000000 -0.000001 2.790017 -11.053818 18.644680 0.733274 -2.510394 32.560943 0.343251 -1.756437 22.112997 -0.000001 -0.000001 -0.000002 -2.181220 -23.081306 21.400950 0.375333 -1.833375 23.137037 0.438973 -1.975622 25.052219 0.000001 -0.000001 0.000001 -67.101103 -17.334252 12.392227 30.344942 -6.510098 5.944142 2.172837 -12.511429 -16.378551 -5.293459 -0.000002 0.000001 -0.000000 -0.000000 -0.000000 0.880469 -10.616260 5.113937 23.374883 -10.138093 -8.275622 26.977856 -3.775288 15.138580 1.396927 -0.000003 -0.000001 -0.000000 -0.000003 -0.000001 
-12.207233 185.039017 517.076172 208.232182 -186.289038 164.301444 9.526976 4.904132 -7.002114 3.832896 4.417077 -4.711495 3.634956 4.793172 -3.938486 -11.528413 -3.297043 -2.080793 -30.462104 -22.273532 5.152177 -0.000000 0.000000 0.000000 -0.000000 0.000000 0.000000 -0.000000 0.000000 0.000000 -8.580452 -1.444374 -4.376916 -5.173704 -22.809891 -62.581472 -0.000011 -35.021074 -0.000035 22.391139 5.753473 15.892788 0.552464 8.043602 -4.885834 0.000007 0.011127 -0.108562 0.211844 1.562687 -15.439156 -0.000002 0.000000 0.000000 -1.097368 7.738240 7.102024 3.622907 7.129636 7.063496 -11.975152 5.358805 4.236318 0.000001 0.000002 0.000003 4.988278 2.629246 -11.259978 0.082736 0.982141 -9.630274 0.028677 0.579524 -5.664585 0.000001 -0.000001 0.000000 0.439389 9.854263 -2.561862 0.071020 0.910385 -8.920520 0.136766 1.259787 -12.391827 -0.000000 -0.000001 0.000001 -1.308563 14.001846 7.221381 0.770593 2.906181 -29.695467 0.005531 0.254845 -2.487646 -0.000001 -0.000000 0.000001 1.423293 29.385769 -27.935544 -1.574842 19.022290 -4.218040 -0.000002 2.652637 0.000010 -43.830738 7.894310 10.935978 0.485664 -4.268621 22.088174 0.089159 -0.907916 11.217632 0.007992 -0.272865 3.351436 -0.000001 0.000001 -0.000001 -8.541225 8.221278 8.177786 7.082465 -18.678998 -0.978635 -4.892681 -10.246404 -15.723089 0.000004 0.000000 0.000000 0.548809 4.768948 28.806183 0.025180 -0.484092 5.953613 0.000068 -0.025343 0.311197 0.000002 0.000001 0.000003 1.867898 -10.630099 12.826585 0.036875 -0.585515 7.206614 0.002502 -0.152611 1.873829 -0.000001 -0.000000 0.000002 -2.502318 -21.861752 7.016629 -0.000006 -0.000014 0.000068 0.020302 0.434833 -5.345479 0.000000 0.000001 0.000001 -66.355541 -15.890879 10.528514 30.683792 -7.220389 5.483739 1.344655 -13.949773 -14.868386 -3.522464 0.000004 0.000003 0.000000 0.000000 -0.000000 -0.988126 -8.994499 3.744181 26.308261 -9.938099 -9.201437 22.641187 -2.282664 13.525386 3.382871 -0.000002 0.000000 0.000001 -0.000003 0.000001 
